<svg xmlns="http://www.w3.org/2000/svg" viewBox="0 0 327 87"><path d="M121.3 39.4c0 1.5-.2 2.8-.7 4-.5 1.2-1.2 2.1-2.1 2.9s-1.9 1.4-3.2 1.8c-1.2.4-2.5.6-3.9.6H97.6V16.9h13.2c2.2 0 4 .4 5.5 1.1 1.5.8 2.7 1.8 3.5 3.2.8 1.4 1.2 3 1.2 4.8 0 1.5-.4 2.8-1.1 3.9-.8 1.1-1.5 1.9-2.4 2.4 1 .6 2 1.5 2.8 2.5.6 1.1 1 2.6 1 4.6zm-8.2-12.9c0-.7-.2-1.3-.7-1.8-.4-.5-1.2-.8-2.1-.8h-4.9v5.2h4.9c1 0 1.7-.3 2.1-.8.4-.4.7-1 .7-1.8zm.4 12.4c0-.8-.2-1.4-.7-2-.5-.5-1.2-.8-2.2-.8h-5.3v5.6h5.3c1 0 1.7-.3 2.2-.8.5-.5.7-1.2.7-2zm35.5 9.9h-21.6V16.9H149v7h-13.8v5.3H147v7h-11.8v5.6H149v7zm28.4-9.8c0 2.1-.5 3.9-1.6 5.4s-2.6 2.7-4.5 3.4c-1.9.8-3.9 1.2-6.2 1.2-2.6 0-4.9-.3-6.9-.9-2-.6-3.7-1.7-5.2-3.3l5-5c.8.8 1.8 1.4 3.1 1.7 1.3.4 2.6.5 4 .5 3 0 4.6-1 4.6-2.9 0-.8-.2-1.4-.6-1.9s-1.1-.7-2.1-.9l-3.8-.5c-2.8-.4-5-1.3-6.4-2.8-1.5-1.5-2.2-3.6-2.2-6.4 0-1.9.5-3.7 1.4-5.2s2.3-2.7 4-3.6c1.8-.9 3.8-1.3 6.2-1.3 2.3 0 4.4.3 6.1.9 1.8.6 3.3 1.6 4.6 2.9l-4.9 4.9c-.8-.8-1.7-1.3-2.6-1.5-.9-.2-2.1-.3-3.4-.3-1.3 0-2.2.3-2.9.9-.7.6-1 1.3-1 2.1 0 .6.2 1.1.6 1.5.5.5 1.2.8 2.2.9l3.8.5c2.8.4 4.9 1.3 6.3 2.6.8.8 1.4 1.8 1.8 2.9.5 1.3.6 2.7.6 4.2zM207 27.2c0 1.8-.4 3.5-1.3 5-.9 1.6-2.1 2.8-3.7 3.8s-3.6 1.4-5.9 1.4h-4.8v11.3h-7.8V16.9h12.6c2.3 0 4.2.5 5.9 1.4 1.6 1 2.9 2.2 3.7 3.8.8 1.6 1.3 3.3 1.3 5.1zm-7.9 0c0-.6-.1-1.1-.4-1.6-.3-.5-.7-.9-1.2-1.2-.5-.3-1.1-.4-1.8-.4h-4.4v6.4h4.4c.7 0 1.3-.1 1.8-.4s.9-.7 1.2-1.2c.3-.5.4-1.1.4-1.6zm36.1 5.6v1.1c0 1.8-.1 3.3-.2 4.6-.1 1.3-.4 2.5-.9 3.7-.5 1.2-1.2 2.3-2.1 3.2-1.2 1.2-2.5 2.1-3.9 2.7-1.4.6-3.1.9-5 .9-1.3 0-2.5-.1-3.5-.4-1-.3-2-.7-2.9-1.2-.9-.5-1.7-1.2-2.5-2-1.4-1.4-2.3-3-2.7-4.8-.4-1.8-.6-4-.6-6.8v-2.2c0-2.7.2-5 .6-6.8.4-1.8 1.3-3.4 2.7-4.8 1.2-1.2 2.5-2.1 3.9-2.7 1.4-.6 3.1-.9 5-.9s3.6.3 5 .9c1.4.6 2.7 1.5 3.9 2.7 1 1 1.7 2 2.1 3.2.5 1.2.8 2.4.9 3.7.1 1.3.2 2.8.2 4.6v1.3zm-7.8 0c0-2.7-.1-4.6-.3-5.5-.2-1-.5-1.7-.9-2.3-.3-.4-.7-.7-1.3-1-.6-.3-1.2-.4-1.9-.4s-1.3.1-1.8.4-1 .6-1.3 1c-.3.3-.5.7-.6 1.2-.2.5-.3 1.2-.4 2.2s-.1 2.5-.1 4.3c0 1.9 0 3.3.1 4.3s.2 1.8.4 2.2c.2.5.4.9.6 1.2.7 1 1.8 1.4 3.1 1.4 1.4 0 2.4-.5 3.1-1.4.4-.6.7-1.3.9-2.3s.4-2.5.4-5.3zm40.7 16H259l-7.3-13.1-2.7 3.1v10h-7.8V16.9h7.8v11.3l9.2-11.3h9.6l-10.9 12.9 11.2 19zm25.7 0h-21.6V16.9h21.6v7H280v5.3h11.8v7H280v5.6h13.8v7zm30.8 0h-6.8l-10.2-16v16h-7.8V16.9h6.8l10.2 16v-16h7.8v31.9zM109 62.1c0 1.8 0 2.9-.1 3.5-.2 1.2-.7 2.2-1.5 3-1 1-2.4 1.5-4.2 1.5h-5.7V54.3h5.7c1.8 0 3.2.5 4.2 1.5.8.8 1.3 1.8 1.5 2.9.1.6.1 1.7.1 3.4zm-3.1 0c0-1.3 0-2.2-.1-2.7-.1-.6-.3-1.1-.6-1.4-.5-.7-1.3-1-2.3-1h-2.3v10.3h2.3c1 0 1.8-.3 2.3-1 .3-.3.5-.8.6-1.5.1-.5.1-1.4.1-2.7zm9.2 8H112V54.3h3.1v15.8zm15.3-6.5c0 2.2-.5 3.8-1.5 4.8-1.2 1.2-2.6 1.8-4.5 1.8-1.7 0-3.1-.6-4.3-1.7-.7-.7-1.2-1.6-1.4-2.7-.1-.7-.2-1.8-.2-3.6 0-1.7.1-2.9.2-3.6.2-1.1.7-2 1.4-2.7 1.2-1.2 2.6-1.7 4.3-1.7 1.7 0 3.1.5 4.2 1.5.9.9 1.5 2.1 1.8 3.5h-3.1c-.4-1.5-1.3-2.3-2.8-2.3-.8 0-1.5.3-2 .8-.4.4-.6 1.2-.7 2.1v4.6c.1 1 .3 1.7.7 2.2.5.5 1.1.8 2 .8.9 0 1.7-.3 2.2-.9.5-.5.7-1.2.7-2.1v-.6h-2.9v-2.6h6v2.4zm6.7 6.5H134V54.3h3.1v15.8zM152 57h-4.1v13.1h-3.1V57h-4.1v-2.8H152V57zm14.5 13.1h-3.2l-.9-2.8h-5.6l-1 2.8h-3.2l5.8-15.8h2.4l5.7 15.8zm-5-5.4l-1.9-5.8-2 5.8h3.9zm18.2 5.4h-10.3V54.3h3.1v13.1h7.2v2.7zm14 0h-10.4V54.3h10.4V57h-7.3v3.7h6.2v2.8h-6.2v3.8h7.3v2.8zm22.1-4.7c0 1.5-.6 2.7-1.7 3.5-1.1.9-2.5 1.3-4.2 1.3-2.5 0-4.4-.7-5.8-2.1l2-2c.9.9 2.2 1.3 3.8 1.3 1.9 0 2.8-.7 2.8-2 0-.6-.2-1-.5-1.3-.3-.3-.8-.5-1.4-.6l-1.9-.3c-2.8-.4-4.2-1.9-4.2-4.4 0-1.4.5-2.6 1.5-3.5s2.3-1.3 4-1.3c2.1 0 3.8.6 5.1 1.8l-2 1.9c-.8-.7-1.8-1.1-3.2-1.1-.8 0-1.4.2-1.8.6s-.6.9-.6 1.4c0 .5.2.8.5 1.2s.8.5 1.4.6l1.9.3c1.3.2 2.4.6 3 1.2.9.9 1.3 2.1 1.3 3.5zm15.8-.7c0 1.6-.6 3-1.7 4s-2.5 1.5-4.2 1.5-3-.5-4.2-1.5c-1.1-1-1.7-2.4-1.7-4V54.3h3.1v10.3c0 .9.2 1.6.7 2.1.5.5 1.2.8 2 .8s1.5-.3 2-.8.7-1.2.7-2.1V54.3h3.1v10.4zm25.6 5.4h-3.1v-9.2l-3 6H249l-3-6v9.2h-3.1V54.3h3l4.1 8.5 4.1-8.5h3.1v15.8zm7.1 0h-3.1V54.3h3.1v15.8zm15.1-4.7c0 1.5-.6 2.7-1.7 3.5-1.1.9-2.5 1.3-4.2 1.3-2.5 0-4.4-.7-5.8-2.1l2-2c.9.9 2.2 1.3 3.8 1.3 1.9 0 2.8-.7 2.8-2 0-.6-.2-1-.5-1.3-.3-.3-.8-.5-1.4-.6l-1.9-.3c-2.8-.4-4.2-1.9-4.2-4.4 0-1.4.5-2.6 1.5-3.5s2.3-1.3 4-1.3c2.1 0 3.8.6 5.1 1.8l-2 1.9c-.8-.7-1.8-1.1-3.2-1.1-.8 0-1.4.2-1.8.6s-.6.9-.6 1.4c0 .5.2.8.5 1.2s.8.5 1.4.6l1.9.3c1.3.2 2.4.6 3 1.2.9.9 1.3 2.1 1.3 3.5zm14.8-.7c0 1.6-.6 3-1.7 4s-2.5 1.5-4.2 1.5-3-.5-4.2-1.5c-1.1-1-1.7-2.4-1.7-4V54.3h3.1v10.3c0 .9.2 1.6.7 2.1.5.5 1.2.8 2 .8s1.5-.3 2-.8.7-1.2.7-2.1V54.3h3.1v10.4zm16 5.4h-3.6l-3.1-6.3h-2.2v6.3h-3.1V54.3h6.2c1.6 0 2.8.5 3.8 1.4.9.9 1.4 2 1.4 3.4 0 1.1-.3 2-.9 2.7-.5.7-1.2 1.1-2 1.4l3.5 6.9zm-3.7-11c0-.6-.2-1.1-.6-1.5-.4-.4-1-.6-1.6-.6h-2.9v4.2h2.9c.7 0 1.2-.2 1.6-.6.4-.4.6-.9.6-1.5zm19.8 11h-3.2l-.9-2.8h-5.6l-1 2.8h-3.2l5.8-15.8h2.4l5.7 15.8zm-4.9-5.4l-1.9-5.8-2 5.8h3.9zM73.8 12.9C57-4 29.5-4 12.7 12.9l-.6.6C4.3 21.6 0 32.2 0 43.5 0 55 4.5 65.9 12.7 74.1c8.2 8.2 19 12.7 30.6 12.7 11.5 0 22.4-4.5 30.6-12.7 16.8-16.9 16.8-44.3-.1-61.2m-2.6 2.7C86.5 31 86.5 56 71.2 71.4c-13 13-34.1 13-47 0-2.7-2.7-4.9-5.8-6.5-9.2 0-.1-.1-.1-.1-.2-.2-.3-.3-.7-.4-1-.1-.2-.2-.4-.2-.6-.1-.2-.2-.4-.3-.7l-.3-.9c0-.1-.1-.3-.1-.4-.1-.4-.3-.8-.4-1.2V57c-.1-.5-.3-.9-.4-1.4-2.1-8.8-.6-18.3 4.5-26.1v-.1c.3-.4.5-.8.8-1.1.1-.1.1-.2.2-.2.2-.3.5-.6.7-1 .1-.1.2-.3.3-.4.2-.3.5-.6.7-.9.1-.1.2-.3.4-.4l1.2-1.2.7-.7.6-.6.1-.1c.2-.2.4-.3.6-.4.1-.1.2-.1.3-.2.2-.1.3-.2.5-.3.1-.1.3-.2.4-.3.1-.1.2-.2.4-.2.2-.1.3-.2.5-.3.1-.1.2-.1.3-.2.2-.1.4-.2.7-.4.1 0 .1-.1.2-.1.3-.1.5-.3.8-.4h.1c1.2-.6 2.5-1 3.8-1.3h.1c.3-.1.6-.1.8-.2.1 0 .2 0 .4-.1.2 0 .4-.1.6-.1.3 0 .6-.1.9-.1h.1c.7-.1 1.4-.1 2.1-.1 5.6 0 10.8 2.2 14.7 6.1 2.8 2.8 4.6 6.1 5.5 9.7-.8-1.3-1.7-2.5-2.8-3.6-3.5-3.5-8.1-5.4-13-5.4s-9.6 1.9-13 5.4c-9.6 9.6-9.6 25.2 0 34.9 4.7 4.7 10.8 7.2 17.4 7.2 6.6 0 12.8-2.6 17.4-7.2.5-.5.9-.9 1.3-1.4 13.1-14.5 12.7-37-1.3-51-2.4-2.4-5.1-4.5-8-6.1-.1-.1-.3-.2-.4-.2-.3-.2-.6-.3-.9-.5-.1 0-.1-.1-.2-.1 5.3 2 10.6 5.2 15.2 9.7M32.9 33.1c2.8-2.8 6.4-4.3 10.3-4.3 3.9 0 7.6 1.5 10.4 4.3 5.7 5.7 5.7 15 0 20.7-2.8 2.8-6.4 4.3-10.3 4.3-3.9 0-7.6-1.5-10.4-4.3-5.7-5.7-5.7-15 0-20.7M3.8 43.5c0-10.5 4.1-20.4 11.5-27.9.3-.3.6-.6 1-.9l.2-.2c.3-.2.5-.5.8-.7.2-.1.3-.3.5-.4.2-.2.4-.3.7-.5.2-.2.4-.4.7-.5.2-.1.3-.2.5-.3l.9-.6c.1-.1.2-.1.3-.2.4-.2.8-.5 1.2-.7 5.6-3.3 12.1-4.8 18.4-4.5.5 0 .9.1 1.4.1h.2c.5 0 1 .1 1.5.2h.1l1.5.3h.1l1.5.3h.1c.4.1.9.2 1.3.4.1 0 .2 0 .2.1.4.1.8.2 1.1.4.1 0 .3.1.4.1l.9.3c.2.1.5.2.7.3.2.1.4.2.5.2.3.1.7.3 1 .4.1 0 .1.1.2.1 3.4 1.6 6.5 3.8 9.2 6.5 12.6 12.6 13 32.8 1.2 45.8l-1.2 1.2c-3.9 3.9-9.2 6.1-14.7 6.1-5.6 0-10.8-2.2-14.7-6.1-2.8-2.8-4.6-6.1-5.5-9.7.8 1.3 1.7 2.5 2.8 3.6 3.5 3.5 8.1 5.4 13 5.4s9.5-1.9 13-5.4l.2-.2.3-.3c.2-.2.4-.4.5-.6l.3-.3c.2-.2.4-.4.6-.7l.2-.2c.2-.3.4-.5.6-.8 0 0 0-.1.1-.1 6.9-9.6 6-23.1-2.6-31.7-2.9-2.9-6.4-5-10.2-6.1h-.1l-.9-.3c-.1 0-.1 0-.2-.1-.3-.1-.6-.1-.9-.2-.1 0-.1 0-.2-.1-.4-.1-.7-.1-1.1-.2h-.1c-1.6-.2-3.2-.3-4.9-.2-.4 0-.8 0-1.1.1-.3 0-.6.1-.9.1h-.3c-2.8.4-5.4 1.3-7.9 2.6-.3.2-.6.3-.9.5-.1 0-.1.1-.2.1-.3.1-.5.3-.7.5-.1.1-.2.1-.3.2-.2.1-.4.3-.6.4-.2.1-.3.2-.5.3-.1.1-.3.2-.4.3-.2.1-.4.3-.6.5-.1.1-.2.1-.3.2-.2.2-.5.4-.7.6l-.1.1c-.3.2-.5.5-.8.8-.4.4-.9.9-1.3 1.4-.1.1-.2.3-.4.4-.3.3-.6.7-.9 1-.1.1-.2.2-.3.4-.3.4-.6.7-.9 1.1l-.2.2c-.3.4-.6.9-.9 1.3-4 6-6.1 13-6.1 20.4 0 4.2.7 8.3 2 12.2v.1c.2.4.3.9.5 1.3.1.2.1.3.2.5.1.3.3.6.4.9.1.3.2.5.4.8.1.2.2.3.2.5 1.8 3.6 4.1 7 7.1 10 2.9 2.9 6.2 5.2 9.7 7-5.9-1.9-11.3-5.2-15.8-9.7C7.9 63.9 3.8 54 3.8 43.5m31.7 2.1c-1.2 0-2.1-.9-2.1-2.1 0-1.2.9-2.1 2.1-2.1h5.6v-5.6c0-1.2.9-2.1 2.1-2.1 1.2 0 2.1.9 2.1 2.1v5.6H51c1.2 0 2.1.9 2.1 2.1 0 1.2-.9 2.1-2.1 2.1h-5.6v5.6c0 1.2-.9 2.1-2.1 2.1-1.2 0-2.1-.9-2.1-2.1v-5.6h-5.7" fill="#FFF"/></svg>