<?xml version="1.0" encoding="utf-8"?>
<!-- Generator: Adobe Illustrator 21.0.0, SVG Export Plug-In . SVG Version: 6.00 Build 0)  -->
<!DOCTYPE svg PUBLIC "-//W3C//DTD SVG 1.1//EN" "http://www.w3.org/Graphics/SVG/1.1/DTD/svg11.dtd">
<svg version="1.1" id="Layer_1" xmlns="http://www.w3.org/2000/svg" xmlns:xlink="http://www.w3.org/1999/xlink" x="0px" y="0px"
	 viewBox="0 0 327 87" enable-background="new 0 0 327 87" xml:space="preserve">
<g>
	<g>
		<g>
			<path fill="#58595B" d="M121.3,39.4c0,1.5-0.2,2.8-0.7,4c-0.5,1.2-1.2,2.1-2.1,2.9s-1.9,1.4-3.2,1.8c-1.2,0.4-2.5,0.6-3.9,0.6
				H97.6V16.9h13.2c2.2,0,4,0.4,5.5,1.1c1.5,0.8,2.7,1.8,3.5,3.2c0.8,1.4,1.2,3,1.2,4.8c0,1.5-0.4,2.8-1.1,3.9
				c-0.8,1.1-1.5,1.9-2.4,2.4c1,0.6,2,1.5,2.8,2.5C120.9,35.9,121.3,37.4,121.3,39.4z M113.1,26.5c0-0.7-0.2-1.3-0.7-1.8
				c-0.4-0.5-1.2-0.8-2.1-0.8h-4.9v5.2h4.9c1,0,1.7-0.3,2.1-0.8C112.8,27.9,113.1,27.3,113.1,26.5z M113.5,38.9c0-0.8-0.2-1.4-0.7-2
				c-0.5-0.5-1.2-0.8-2.2-0.8h-5.3v5.6h5.3c1,0,1.7-0.3,2.2-0.8C113.3,40.4,113.5,39.7,113.5,38.9z"/>
			<path fill="#58595B" d="M149,48.8h-21.6V16.9H149v7h-13.8v5.3H147v7h-11.8v5.6H149V48.8z"/>
			<path fill="#58595B" d="M177.4,39c0,2.1-0.5,3.9-1.6,5.4s-2.6,2.7-4.5,3.4c-1.9,0.8-3.9,1.2-6.2,1.2c-2.6,0-4.9-0.3-6.9-0.9
				c-2-0.6-3.7-1.7-5.2-3.3l5-5c0.8,0.8,1.8,1.4,3.1,1.7c1.3,0.4,2.6,0.5,4,0.5c3,0,4.6-1,4.6-2.9c0-0.8-0.2-1.4-0.6-1.9
				s-1.1-0.7-2.1-0.9l-3.8-0.5c-2.8-0.4-5-1.3-6.4-2.8c-1.5-1.5-2.2-3.6-2.2-6.4c0-1.9,0.5-3.7,1.4-5.2s2.3-2.7,4-3.6
				c1.8-0.9,3.8-1.3,6.2-1.3c2.3,0,4.4,0.3,6.1,0.9c1.8,0.6,3.3,1.6,4.6,2.9l-4.9,4.9c-0.8-0.8-1.7-1.3-2.6-1.5
				c-0.9-0.2-2.1-0.3-3.4-0.3c-1.3,0-2.2,0.3-2.9,0.9c-0.7,0.6-1,1.3-1,2.1c0,0.6,0.2,1.1,0.6,1.5c0.5,0.5,1.2,0.8,2.2,0.9l3.8,0.5
				c2.8,0.4,4.9,1.3,6.3,2.6c0.8,0.8,1.4,1.8,1.8,2.9C177.3,36.1,177.4,37.5,177.4,39z"/>
			<path fill="#58595B" d="M207,27.2c0,1.8-0.4,3.5-1.3,5c-0.9,1.6-2.1,2.8-3.7,3.8s-3.6,1.4-5.9,1.4h-4.8v11.3h-7.8V16.9h12.6
				c2.3,0,4.2,0.5,5.9,1.4c1.6,1,2.9,2.2,3.7,3.8C206.5,23.7,207,25.4,207,27.2z M199.1,27.2c0-0.6-0.1-1.1-0.4-1.6
				c-0.3-0.5-0.7-0.9-1.2-1.2c-0.5-0.3-1.1-0.4-1.8-0.4h-4.4v6.4h4.4c0.7,0,1.3-0.1,1.8-0.4s0.9-0.7,1.2-1.2
				C199,28.3,199.1,27.7,199.1,27.2z"/>
			<path fill="#58595B" d="M235.2,32.8v1.1c0,1.8-0.1,3.3-0.2,4.6c-0.1,1.3-0.4,2.5-0.9,3.7c-0.5,1.2-1.2,2.3-2.1,3.2
				c-1.2,1.2-2.5,2.1-3.9,2.7c-1.4,0.6-3.1,0.9-5,0.9c-1.3,0-2.5-0.1-3.5-0.4c-1-0.3-2-0.7-2.9-1.2c-0.9-0.5-1.7-1.2-2.5-2
				c-1.4-1.4-2.3-3-2.7-4.8c-0.4-1.8-0.6-4-0.6-6.8v-1.1v-1.1c0-2.7,0.2-5,0.6-6.8c0.4-1.8,1.3-3.4,2.7-4.8c1.2-1.2,2.5-2.1,3.9-2.7
				c1.4-0.6,3.1-0.9,5-0.9c1.9,0,3.6,0.3,5,0.9c1.4,0.6,2.7,1.5,3.9,2.7c1,1,1.7,2,2.1,3.2c0.5,1.2,0.8,2.4,0.9,3.7
				c0.1,1.3,0.2,2.8,0.2,4.6V32.8z M227.4,32.8c0-2.7-0.1-4.6-0.3-5.5c-0.2-1-0.5-1.7-0.9-2.3c-0.3-0.4-0.7-0.7-1.3-1
				c-0.6-0.3-1.2-0.4-1.9-0.4c-0.7,0-1.3,0.1-1.8,0.4s-1,0.6-1.3,1c-0.3,0.3-0.5,0.7-0.6,1.2c-0.2,0.5-0.3,1.2-0.4,2.2
				s-0.1,2.5-0.1,4.3c0,1.9,0,3.3,0.1,4.3c0.1,1,0.2,1.8,0.4,2.2c0.2,0.5,0.4,0.9,0.6,1.2c0.7,1,1.8,1.4,3.1,1.4
				c1.4,0,2.4-0.5,3.1-1.4c0.4-0.6,0.7-1.3,0.9-2.3S227.4,35.6,227.4,32.8z"/>
			<path fill="#58595B" d="M268.1,48.8H259l-7.3-13.1l-2.7,3.1v10h-7.8V16.9h7.8v11.3l9.2-11.3h9.6l-10.9,12.9L268.1,48.8z"/>
			<path fill="#58595B" d="M293.8,48.8h-21.6V16.9h21.6v7h-13.8v5.3h11.8v7h-11.8v5.6h13.8V48.8z"/>
			<path fill="#58595B" d="M324.6,48.8h-6.8l-10.2-16v16h-7.8V16.9h6.8l10.2,16v-16h7.8V48.8z"/>
		</g>
		<g>
			<path fill="#58595B" d="M109,62.1c0,1.8,0,2.9-0.1,3.5c-0.2,1.2-0.7,2.2-1.5,3c-1,1-2.4,1.5-4.2,1.5h-5.7V54.3h5.7
				c1.8,0,3.2,0.5,4.2,1.5c0.8,0.8,1.3,1.8,1.5,2.9C109,59.3,109,60.4,109,62.1z M105.9,62.1c0-1.3,0-2.2-0.1-2.7
				c-0.1-0.6-0.3-1.1-0.6-1.4c-0.5-0.7-1.3-1-2.3-1h-2.3v10.3h2.3c1,0,1.8-0.3,2.3-1c0.3-0.3,0.5-0.8,0.6-1.5
				C105.9,64.3,105.9,63.4,105.9,62.1z"/>
			<path fill="#58595B" d="M115.1,70.1H112V54.3h3.1V70.1z"/>
			<path fill="#58595B" d="M130.4,63.6c0,2.2-0.5,3.8-1.5,4.8c-1.2,1.2-2.6,1.8-4.5,1.8c-1.7,0-3.1-0.6-4.3-1.7
				c-0.7-0.7-1.2-1.6-1.4-2.7c-0.1-0.7-0.2-1.8-0.2-3.6c0-1.7,0.1-2.9,0.2-3.6c0.2-1.1,0.7-2,1.4-2.7c1.2-1.2,2.6-1.7,4.3-1.7
				c1.7,0,3.1,0.5,4.2,1.5c0.9,0.9,1.5,2.1,1.8,3.5h-3.1c-0.4-1.5-1.3-2.3-2.8-2.3c-0.8,0-1.5,0.3-2,0.8c-0.4,0.4-0.6,1.2-0.7,2.1
				c0,0.3,0,1,0,2.3c0,1.3,0,2,0,2.3c0.1,1,0.3,1.7,0.7,2.2c0.5,0.5,1.1,0.8,2,0.8c0.9,0,1.7-0.3,2.2-0.9c0.5-0.5,0.7-1.2,0.7-2.1
				v-0.6h-2.9v-2.6h6V63.6z"/>
			<path fill="#58595B" d="M137.1,70.1H134V54.3h3.1V70.1z"/>
			<path fill="#58595B" d="M152,57h-4.1v13.1h-3.1V57h-4.1v-2.8H152V57z"/>
			<path fill="#58595B" d="M166.5,70.1h-3.2l-0.9-2.8h-5.6l-1,2.8h-3.2l5.8-15.8h2.4L166.5,70.1z M161.5,64.7l-1.9-5.8l-2,5.8H161.5
				z"/>
			<path fill="#58595B" d="M179.7,70.1h-10.3V54.3h3.1v13.1h7.2V70.1z"/>
			<path fill="#58595B" d="M193.7,70.1h-10.4V54.3h10.4V57h-7.3v3.7h6.2v2.8h-6.2v3.8h7.3V70.1z"/>
			<path fill="#58595B" d="M215.8,65.4c0,1.5-0.6,2.7-1.7,3.5c-1.1,0.9-2.5,1.3-4.2,1.3c-2.5,0-4.4-0.7-5.8-2.1l2-2
				c0.9,0.9,2.2,1.3,3.8,1.3c1.9,0,2.8-0.7,2.8-2c0-0.6-0.2-1-0.5-1.3c-0.3-0.3-0.8-0.5-1.4-0.6l-1.9-0.3c-2.8-0.4-4.2-1.9-4.2-4.4
				c0-1.4,0.5-2.6,1.5-3.5s2.3-1.3,4-1.3c2.1,0,3.8,0.6,5.1,1.8l-2,1.9c-0.8-0.7-1.8-1.1-3.2-1.1c-0.8,0-1.4,0.2-1.8,0.6
				s-0.6,0.9-0.6,1.4c0,0.5,0.2,0.8,0.5,1.2s0.8,0.5,1.4,0.6l1.9,0.3c1.3,0.2,2.4,0.6,3,1.2C215.4,62.8,215.8,64,215.8,65.4z"/>
			<path fill="#58595B" d="M231.6,64.7c0,1.6-0.6,3-1.7,4c-1.1,1-2.5,1.5-4.2,1.5s-3-0.5-4.2-1.5c-1.1-1-1.7-2.4-1.7-4V54.3h3.1
				v10.3c0,0.9,0.2,1.6,0.7,2.1c0.5,0.5,1.2,0.8,2,0.8s1.5-0.3,2-0.8s0.7-1.2,0.7-2.1V54.3h3.1V64.7z"/>
			<path fill="#58595B" d="M257.2,70.1h-3.1v-9.2l-3,6H249l-3-6v9.2h-3.1V54.3h3l4.1,8.5l4.1-8.5h3.1V70.1z"/>
			<path fill="#58595B" d="M264.3,70.1h-3.1V54.3h3.1V70.1z"/>
			<path fill="#58595B" d="M279.4,65.4c0,1.5-0.6,2.7-1.7,3.5c-1.1,0.9-2.5,1.3-4.2,1.3c-2.5,0-4.4-0.7-5.8-2.1l2-2
				c0.9,0.9,2.2,1.3,3.8,1.3c1.9,0,2.8-0.7,2.8-2c0-0.6-0.2-1-0.5-1.3c-0.3-0.3-0.8-0.5-1.4-0.6l-1.9-0.3c-2.8-0.4-4.2-1.9-4.2-4.4
				c0-1.4,0.5-2.6,1.5-3.5s2.3-1.3,4-1.3c2.1,0,3.8,0.6,5.1,1.8l-2,1.9c-0.8-0.7-1.8-1.1-3.2-1.1c-0.8,0-1.4,0.2-1.8,0.6
				s-0.6,0.9-0.6,1.4c0,0.5,0.2,0.8,0.5,1.2s0.8,0.5,1.4,0.6l1.9,0.3c1.3,0.2,2.4,0.6,3,1.2C279,62.8,279.4,64,279.4,65.4z"/>
			<path fill="#58595B" d="M294.2,64.7c0,1.6-0.6,3-1.7,4c-1.1,1-2.5,1.5-4.2,1.5s-3-0.5-4.2-1.5c-1.1-1-1.7-2.4-1.7-4V54.3h3.1
				v10.3c0,0.9,0.2,1.6,0.7,2.1c0.5,0.5,1.2,0.8,2,0.8s1.5-0.3,2-0.8s0.7-1.2,0.7-2.1V54.3h3.1V64.7z"/>
			<path fill="#58595B" d="M310.2,70.1h-3.6l-3.1-6.3h-2.2v6.3h-3.1V54.3h6.2c1.6,0,2.8,0.5,3.8,1.4c0.9,0.9,1.4,2,1.4,3.4
				c0,1.1-0.3,2-0.9,2.7c-0.5,0.7-1.2,1.1-2,1.4L310.2,70.1z M306.5,59.1c0-0.6-0.2-1.1-0.6-1.5c-0.4-0.4-1-0.6-1.6-0.6h-2.9v4.2
				h2.9c0.7,0,1.2-0.2,1.6-0.6C306.3,60.2,306.5,59.7,306.5,59.1z"/>
			<path fill="#58595B" d="M326.3,70.1h-3.2l-0.9-2.8h-5.6l-1,2.8h-3.2l5.8-15.8h2.4L326.3,70.1z M321.4,64.7l-1.9-5.8l-2,5.8H321.4
				z"/>
		</g>
	</g>
	<linearGradient id="SVGID_1_" gradientUnits="userSpaceOnUse" x1="73.8507" y1="74.0833" x2="12.662" y2="12.8946">
		<stop  offset="0" style="stop-color:#90278E"/>
		<stop  offset="1" style="stop-color:#C5168C"/>
	</linearGradient>
	<path fill="url(#SVGID_1_)" d="M73.8,12.9C57-4,29.5-4,12.7,12.9c0,0,0,0,0,0c0,0,0,0,0,0c0,0,0,0,0,0l-0.6,0.6v0
		C4.3,21.6,0,32.2,0,43.5C0,55,4.5,65.9,12.7,74.1c8.2,8.2,19,12.7,30.6,12.7c0,0,0,0,0,0c11.5,0,22.4-4.5,30.6-12.7c0,0,0,0,0,0
		c0,0,0,0,0,0c0,0,0,0,0,0C90.7,57.2,90.7,29.8,73.8,12.9 M71.2,15.6C86.5,31,86.5,56,71.2,71.4c-13,13-34.1,13-47,0
		c-2.7-2.7-4.9-5.8-6.5-9.2c0-0.1-0.1-0.1-0.1-0.2c-0.2-0.3-0.3-0.7-0.4-1c-0.1-0.2-0.2-0.4-0.2-0.6c-0.1-0.2-0.2-0.4-0.3-0.7
		c-0.1-0.3-0.2-0.6-0.3-0.9c0-0.1-0.1-0.3-0.1-0.4c-0.1-0.4-0.3-0.8-0.4-1.2c0-0.1,0-0.1,0-0.2c-0.1-0.5-0.3-0.9-0.4-1.4
		c0,0,0,0,0,0c-2.1-8.8-0.6-18.3,4.5-26.1c0,0,0,0,0-0.1c0.3-0.4,0.5-0.8,0.8-1.1c0.1-0.1,0.1-0.2,0.2-0.2c0.2-0.3,0.5-0.6,0.7-1
		c0.1-0.1,0.2-0.3,0.3-0.4c0.2-0.3,0.5-0.6,0.7-0.9c0.1-0.1,0.2-0.3,0.4-0.4c0.4-0.4,0.8-0.8,1.2-1.2c0.2-0.2,0.5-0.5,0.7-0.7
		c0,0,0,0,0,0c0.2-0.2,0.4-0.4,0.6-0.6c0,0,0.1-0.1,0.1-0.1c0.2-0.2,0.4-0.3,0.6-0.4c0.1-0.1,0.2-0.1,0.3-0.2
		c0.2-0.1,0.3-0.2,0.5-0.3c0.1-0.1,0.3-0.2,0.4-0.3c0.1-0.1,0.2-0.2,0.4-0.2c0.2-0.1,0.3-0.2,0.5-0.3c0.1-0.1,0.2-0.1,0.3-0.2
		c0.2-0.1,0.4-0.2,0.7-0.4c0.1,0,0.1-0.1,0.2-0.1c0.3-0.1,0.5-0.3,0.8-0.4c0,0,0,0,0.1,0c1.2-0.6,2.5-1,3.8-1.3c0,0,0.1,0,0.1,0
		c0.3-0.1,0.6-0.1,0.8-0.2c0.1,0,0.2,0,0.4-0.1c0.2,0,0.4-0.1,0.6-0.1c0.3,0,0.6-0.1,0.9-0.1c0,0,0,0,0.1,0c0.7-0.1,1.4-0.1,2.1-0.1
		c5.6,0,10.8,2.2,14.7,6.1c2.8,2.8,4.6,6.1,5.5,9.7c-0.8-1.3-1.7-2.5-2.8-3.6c-3.5-3.5-8.1-5.4-13-5.4c-4.9,0-9.6,1.9-13,5.4v0l0,0
		c-9.6,9.6-9.6,25.2,0,34.9c4.7,4.7,10.8,7.2,17.4,7.2c6.6,0,12.8-2.6,17.4-7.2c0.5-0.5,0.9-0.9,1.3-1.4c13.1-14.5,12.7-37-1.3-51
		c-2.4-2.4-5.1-4.5-8-6.1c-0.1-0.1-0.3-0.2-0.4-0.2c-0.3-0.2-0.6-0.3-0.9-0.5c-0.1,0-0.1-0.1-0.2-0.1C61.3,7.9,66.6,11.1,71.2,15.6
		 M32.9,33.1L32.9,33.1c2.8-2.8,6.4-4.3,10.3-4.3c3.9,0,7.6,1.5,10.4,4.3c5.7,5.7,5.7,15,0,20.7c-2.8,2.8-6.4,4.3-10.3,4.3
		c-3.9,0-7.6-1.5-10.4-4.3C27.2,48.1,27.2,38.8,32.9,33.1 M3.8,43.5c0-10.5,4.1-20.4,11.5-27.9l0,0c0.3-0.3,0.6-0.6,1-0.9
		c0.1-0.1,0.2-0.2,0.2-0.2c0.3-0.2,0.5-0.5,0.8-0.7c0.2-0.1,0.3-0.3,0.5-0.4c0.2-0.2,0.4-0.3,0.7-0.5c0.2-0.2,0.4-0.4,0.7-0.5
		c0.2-0.1,0.3-0.2,0.5-0.3c0.3-0.2,0.6-0.4,0.9-0.6c0.1-0.1,0.2-0.1,0.3-0.2c0.4-0.2,0.8-0.5,1.2-0.7c0,0,0,0,0,0
		c5.6-3.3,12.1-4.8,18.4-4.5h0c0.5,0,0.9,0.1,1.4,0.1c0.1,0,0.2,0,0.2,0c0.5,0,1,0.1,1.5,0.2c0,0,0.1,0,0.1,0c0.5,0.1,1,0.2,1.5,0.3
		c0,0,0,0,0.1,0c0.5,0.1,1,0.2,1.5,0.3c0,0,0.1,0,0.1,0c0.4,0.1,0.9,0.2,1.3,0.4c0.1,0,0.2,0,0.2,0.1c0.4,0.1,0.8,0.2,1.1,0.4
		c0.1,0,0.3,0.1,0.4,0.1c0.3,0.1,0.6,0.2,0.9,0.3c0.2,0.1,0.5,0.2,0.7,0.3c0.2,0.1,0.4,0.2,0.5,0.2c0.3,0.1,0.7,0.3,1,0.4
		c0.1,0,0.1,0.1,0.2,0.1c3.4,1.6,6.5,3.8,9.2,6.5c12.6,12.6,13,32.8,1.2,45.8c-0.4,0.4-0.8,0.8-1.2,1.2c-3.9,3.9-9.2,6.1-14.7,6.1
		c-5.6,0-10.8-2.2-14.7-6.1c-2.8-2.8-4.6-6.1-5.5-9.7c0.8,1.3,1.7,2.5,2.8,3.6c3.5,3.5,8.1,5.4,13,5.4c4.9,0,9.5-1.9,13-5.4
		c0,0,0,0,0,0c0,0,0,0,0,0l0,0c0,0,0,0,0,0c0.1-0.1,0.1-0.1,0.2-0.2c0.1-0.1,0.2-0.2,0.3-0.3c0.2-0.2,0.4-0.4,0.5-0.6
		c0.1-0.1,0.2-0.2,0.3-0.3c0.2-0.2,0.4-0.4,0.6-0.7c0.1-0.1,0.1-0.1,0.2-0.2c0.2-0.3,0.4-0.5,0.6-0.8c0,0,0-0.1,0.1-0.1
		c6.9-9.6,6-23.1-2.6-31.7c-2.9-2.9-6.4-5-10.2-6.1c0,0-0.1,0-0.1,0c-0.3-0.1-0.6-0.2-0.9-0.3c-0.1,0-0.1,0-0.2-0.1
		c-0.3-0.1-0.6-0.1-0.9-0.2c-0.1,0-0.1,0-0.2-0.1c-0.4-0.1-0.7-0.1-1.1-0.2c0,0-0.1,0-0.1,0c-1.6-0.2-3.2-0.3-4.9-0.2c0,0,0,0,0,0
		c-0.4,0-0.8,0-1.1,0.1c-0.3,0-0.6,0.1-0.9,0.1c-0.1,0-0.2,0-0.3,0c-2.8,0.4-5.4,1.3-7.9,2.6c0,0,0,0,0,0c-0.3,0.2-0.6,0.3-0.9,0.5
		c-0.1,0-0.1,0.1-0.2,0.1c-0.3,0.1-0.5,0.3-0.7,0.5c-0.1,0.1-0.2,0.1-0.3,0.2c-0.2,0.1-0.4,0.3-0.6,0.4c-0.2,0.1-0.3,0.2-0.5,0.3
		c-0.1,0.1-0.3,0.2-0.4,0.3c-0.2,0.1-0.4,0.3-0.6,0.5c-0.1,0.1-0.2,0.1-0.3,0.2c-0.2,0.2-0.5,0.4-0.7,0.6c0,0-0.1,0.1-0.1,0.1
		c-0.3,0.2-0.5,0.5-0.8,0.8c-0.4,0.4-0.9,0.9-1.3,1.4c-0.1,0.1-0.2,0.3-0.4,0.4c-0.3,0.3-0.6,0.7-0.9,1c-0.1,0.1-0.2,0.2-0.3,0.4
		c-0.3,0.4-0.6,0.7-0.9,1.1c-0.1,0.1-0.1,0.1-0.2,0.2c-0.3,0.4-0.6,0.9-0.9,1.3c0,0,0,0,0,0c-4,6-6.1,13-6.1,20.4
		c0,4.2,0.7,8.3,2,12.2c0,0,0,0.1,0,0.1c0.2,0.4,0.3,0.9,0.5,1.3c0.1,0.2,0.1,0.3,0.2,0.5c0.1,0.3,0.3,0.6,0.4,0.9
		c0.1,0.3,0.2,0.5,0.4,0.8c0.1,0.2,0.2,0.3,0.2,0.5c1.8,3.6,4.1,7,7.1,10c2.9,2.9,6.2,5.2,9.7,7c-5.9-1.9-11.3-5.2-15.8-9.7
		C7.9,63.9,3.8,54,3.8,43.5 M35.5,45.6c-1.2,0-2.1-0.9-2.1-2.1c0-1.2,0.9-2.1,2.1-2.1h5.6v-5.6c0-1.2,0.9-2.1,2.1-2.1
		c1.2,0,2.1,0.9,2.1,2.1v5.6H51c1.2,0,2.1,0.9,2.1,2.1c0,1.2-0.9,2.1-2.1,2.1h-5.6v5.6c0,1.2-0.9,2.1-2.1,2.1
		c-1.2,0-2.1-0.9-2.1-2.1v-5.6H35.5"/>
</g>
</svg>
